#!OML:ASF Y:\EmotionMaleHayes\Project 1\Capture day 1\Session 1\Male1.ASF
:FULLY-SPECIFIED
:DEGREES
854
root 41.1875 16.4005 -12.9896 -211.684 -61.1569 -142.822
lowerback 12.3087 4.69073 9.40036
upperback 3.75939 7.10306 0.690284
thorax -1.81521 3.46382 -5.41954
lowerneck -18.9104 8.65306 10.301
upperneck 23.3249 11.748 -10.9166
head 12.1284 4.77445 -3.85735
rclavicle 2.70347e-014 -4.45278e-014
rhumerus -10.0766 26.2847 -76.0316
rradius 63.8068
rwrist -10.8809
rhand -17.8967 -28.1966
rfingers 7.12502
rthumb 8.37005 -58.0108
lclavicle 2.70347e-014 -4.45278e-014
lhumerus -40.9291 -5.75533 68.1987
lradius 18.7207
lwrist -17.7866
lhand -25.5975 -23.3501
lfingers 7.12502
lthumb 0.934477 6.6276
rfemur 16.7753 -10.9481 23.058
rtibia 2.79697
rfoot -21.7295 -4.31597
rtoes -21.5728
lfemur -39.8789 17.1552 -16.8322
ltibia 52.1928
lfoot -16.3284 2.18424
ltoes 8.17935
855
root 41.0574 16.3228 -13.1258 -212.226 -61.0975 -142.146
lowerback 12.3592 4.86886 9.62448
upperback 3.49179 7.39959 0.551669
thorax -2.03127 3.59928 -5.73739
lowerneck -18.1056 8.54426 10.4039
upperneck 22.999 11.5901 -10.9037
head 11.8286 4.75029 -3.91347
rclavicle -5.88403e-014 -6.20208e-014
rhumerus -8.54458 26.8377 -75.1471
rradius 64.6884
rwrist -11.5922
rhand -18.0795 -28.0029
rfingers 7.12502
rthumb 8.19363 -57.824
lclavicle -5.88403e-014 -6.20208e-014
lhumerus -42.6166 -7.59487 67.6562
lradius 19.288
lwrist -16.1997
lhand -25.858 -23.3037
lfingers 7.12502
lthumb 0.682914 6.6749
rfemur 17.5409 -10.9463 23.5213
rtibia 2.53355
rfoot -22.0809 -4.17474
rtoes -20.6449
lfemur -41.0192 17.7479 -17.2651
ltibia 50.1112
lfoot -16.5511 2.35077
ltoes 6.75046
856
root 40.9182 16.2372 -13.2574 -212.913 -61.006 -141.33
lowerback 12.2793 5.02 9.67445
upperback 3.60308 7.58107 0.487231
thorax -1.82305 3.70326 -5.83096
lowerneck -18.801 8.70408 10.7439
upperneck 23.0259 11.6893 -10.9615
head 12.0169 4.79862 -3.95311
rclavicle 5.12864e-014 1.59028e-015
rhumerus -6.15712 27.244 -73.9136
rradius 65.4192
rwrist -12.3184
rhand -18.5465 -28.0577
rfingers 7.12502
rthumb 7.74285 -57.8959
lclavicle 5.12864e-014 1.59028e-015
lhumerus -43.5802 -8.55932 66.8416
lradius 19.7313
lwrist -14.865
lhand -25.9577 -23.2254
lfingers 7.12502
lthumb 0.586577 6.7535
rfemur 18.3266 -10.9126 24.0434
rtibia 2.37405
rfoot -22.5463 -4.15203
rtoes -19.5033
lfemur -41.9925 18.1632 -17.5496
ltibia 47.9881
lfoot -16.7535 2.51135
ltoes 6.48266
857
root 40.781 16.1481 -13.3903 -213.872 -60.9262 -140.297
lowerback 12.1445 5.0656 10.0999
upperback 3.45286 7.69493 0.439658
thorax -1.82427 3.76046 -6.11617
lowerneck -17.6669 8.62159 10.8674
upperneck 22.4269 11.5937 -11.0251
head 11.565 4.8114 -4.03318
rclavicle -9.97899e-014 -2.54444e-014
rhumerus -4.64414 27.7959 -73.0706
rradius 66.1954
rwrist -12.8472
rhand -19.5581 -28.6943
rfingers 7.12502
rthumb 6.76637 -58.5662
lclavicle -9.97899e-014 -2.54444e-014
lhumerus -45.1693 -9.22115 65.8997
lradius 20.1345
lwrist -13.9977
lhand -25.8713 -23.0398
lfingers 7.12502
lthumb 0.670058 6.93889
rfemur 19.1482 -10.9729 24.6696
rtibia 2.42383
rfoot -23.2457 -4.26257
rtoes -19.7144
lfemur -42.7028 18.3737 -17.5901
ltibia 45.836
lfoot -17.0407 2.51639
ltoes 8.49883
858
root 40.641 16.0564 -13.524 -214.873 -60.6228 -139.177
lowerback 11.8823 5.06798 10.2274
upperback 3.61767 7.66681 0.634853
thorax -1.52058 3.76346 -5.9362
lowerneck -17.6691 8.7748 10.8183
upperneck 22.1772 11.8558 -11.2064
head 11.5157 4.90947 -4.04045
rclavicle -8.18993e-014 -2.8625e-014
rhumerus -2.27038 28.6697 -71.7457
rradius 66.8132
rwrist -13.3136
rhand -20.152 -28.9038
rfingers 7.12502
rthumb 6.19311 -58.7933
lclavicle -8.18993e-014 -2.8625e-014
lhumerus -46.2103 -8.52115 64.6386
lradius 20.1588
lwrist -13.9004
lhand -26.2387 -23.0187
lfingers 7.12502
lthumb 0.315165 6.96081
rfemur 19.8051 -10.7783 25.5889
rtibia 2.68994
rfoot -24.007 -4.53851
rtoes -20.6179
lfemur -43.38 18.6292 -17.2913
ltibia 43.8352
lfoot -17.3233 2.94919
ltoes 11.632
859
root 40.4884 15.9646 -13.6524 -216.074 -60.1621 -137.779
lowerback 12.078 5.03432 10.901
upperback 3.38206 7.7467 0.608694
thorax -1.76554 3.78506 -6.37334
lowerneck -17.6367 8.92559 11.1073
upperneck 22.3235 12.006 -11.2273
head 11.6066 4.99585 -4.072
rclavicle -1.07344e-014 5.88403e-014
rhumerus -0.688323 29.2533 -71.1392
rradius 67.355
rwrist -13.7209
rhand -19.8141 -28.2039
rfingers 7.12502
rthumb 6.51933 -58.0835
lclavicle -1.07344e-014 5.88403e-014
lhumerus -47.5015 -8.17288 62.99
lradius 20.1125
lwrist -14.0521
lhand -26.8231 -22.899
lfingers 7.12502
lthumb -0.249208 7.08056
rfemur 20.3818 -10.565 26.7029
rtibia 3.03193
rfoot -24.7126 -4.51482
rtoes -20.7173
lfemur -44.019 18.7427 -16.6837
ltibia 41.9701
lfoot -17.4342 4.058
ltoes 14.3308
860
root 40.3336 15.8808 -13.7783 -217.467 -59.5771 -136.172
lowerback 11.4775 5.10473 11.366
upperback 3.82315 7.7625 0.879024
thorax -0.935131 3.84807 -6.23828
lowerneck -18.29 9.1905 11.4463
upperneck 22.0282 12.3184 -11.617
head 11.7196 5.10727 -4.18986
rclavicle 3.4191e-014 -9.54166e-015
rhumerus 1.5628 29.4078 -69.8321
rradius 68.1185
rwrist -13.9884
rhand -19.8344 -28.3268
rfingers 7.12502
rthumb 6.49973 -58.207
lclavicle 3.4191e-014 -9.54166e-015
lhumerus -47.5035 -6.31686 60.9838
lradius 19.5171
lwrist -15.0964
lhand -26.9547 -22.947
lfingers 7.12502
lthumb -0.376314 7.03244
rfemur 20.9478 -10.4692 27.9602
rtibia 3.37762
rfoot -25.2827 -4.29653
rtoes -21.2661
lfemur -44.707 18.9911 -15.9673
ltibia 40.3856
lfoot -17.255 5.97803
ltoes 9.87645
861
root 40.1764 15.8073 -13.8994 -218.77 -59.1148 -134.478
lowerback 11.4734 5.03727 12.0893
upperback 3.59971 7.77696 0.942559
thorax -1.07433 3.84389 -6.57741
lowerneck -18.0537 9.28486 11.5552
upperneck 21.7636 12.3959 -11.523
head 11.5837 5.17861 -4.1583
rclavicle 1.70955e-014 -1.11319e-014
rhumerus 2.71795 30.1718 -69.0748
rradius 69.121
rwrist -14.6356
rhand -20.7631 -29.5123
rfingers 7.12502
rthumb 5.6031 -59.4182
lclavicle 1.70955e-014 -1.11319e-014
lhumerus -48.2232 -4.80233 58.7026
lradius 18.8981
lwrist -16.3308
lhand -26.8986 -22.9761
lfingers 7.12502
lthumb -0.322134 7.00338
rfemur 21.2193 -10.5421 29.194
rtibia 3.82257
rfoot -25.7125 -4.66577
rtoes -24.3081
lfemur -45.5744 18.9114 -15.1532
ltibia 39.9212
lfoot -18.2283 7.01748
ltoes 9.19092
862
root 40.0066 15.7434 -14.0064 -219.808 -58.9894 -132.888
lowerback 11.0431 4.88503 12.701
upperback 3.42596 7.60654 0.971723
thorax -0.977241 3.76636 -6.82876
lowerneck -17.6054 9.35923 11.5181
upperneck 21.379 12.5273 -11.5556
head 11.3696 5.25596 -4.14612
rclavicle -6.36111e-014 -1.43125e-014
rhumerus 3.19056 30.6144 -68.6404
rradius 70.6767
rwrist -14.9064
rhand -21.5901 -30.2909
rfingers 7.12502
rthumb 4.80454 -60.2164
lclavicle -6.36111e-014 -1.43125e-014
lhumerus -49.1295 -2.96477 56.4134
lradius 18.3769
lwrist -17.9049
lhand -27.3555 -22.7006
lfingers 7.12502
lthumb -0.76345 7.27776
rfemur 21.1868 -10.7677 30.0837
rtibia 4.51979
rfoot -26.156 -5.27218
rtoes -27.4828
lfemur -46.517 18.4122 -14.731
ltibia 39.1984
lfoot -18.5766 8.21587
ltoes 9.60573
863
root 39.8323 15.6963 -14.1094 -220.28 -58.684 -132.036
lowerback 10.7608 4.93632 12.9337
upperback 3.49042 7.64803 0.913301
thorax -0.702696 3.81038 -6.98007
lowerneck -18.3233 9.60021 11.8715
upperneck 21.3637 12.7475 -11.7026
head 11.571 5.34451 -4.19335
rclavicle 4.92986e-014 -9.85972e-014
rhumerus 4.34029 30.7691 -68.0448
rradius 71.722
rwrist -15.1766
rhand -21.619 -30.3565
rfingers 7.12502
rthumb 4.77663 -60.2827
lclavicle 4.92986e-014 -9.85972e-014
lhumerus -49.5082 -1.0462 54.076
lradius 17.745
lwrist -19.5348
lhand -28.1124 -22.5741
lfingers 7.12502
lthumb -1.49447 7.40041
rfemur 21.1708 -10.5606 30.7949
rtibia 5.43429
rfoot -26.6097 -5.29526
rtoes -28.9538
lfemur -47.0032 18.3425 -14.3762
ltibia 38.8251
lfoot -18.9571 9.17454
ltoes 11.9319
